<svg width="800" height="600" xmlns="http://www.w3.org/2000/svg">

 <g>
  <title>Layer 1</title>
  <path stroke="#000" d="m444.91737,79.34222c-6.05825,-2.31159 -15.54619,-6.51534 -27.86795,-9.24637c-14.35787,-3.18232 -30.29125,-5.77898 -46.0427,-6.93478c-15.75145,-1.1558 -33.05536,-2.41529 -44.83105,1.1558c-11.37249,3.44882 -22.06617,8.05487 -29.0796,17.33695c-6.33668,8.38643 -9.92515,23.06658 -13.32815,38.14129c-3.90174,17.28409 -5.26395,34.74593 -7.2699,50.85505c-1.73868,13.96271 -3.7454,25.49654 -2.4233,36.98549c1.21893,10.59229 6.23075,22.6941 14.5398,32.36231c7.60454,8.84843 17.70378,16.0619 27.86795,19.64854c14.05633,4.96007 33.86504,6.38397 55.7359,8.09058c22.97646,1.79288 46.29942,3.30136 66.64074,0c17.39195,-2.82269 32.93171,-9.92818 47.25435,-16.18115c12.31784,-5.37771 22.90047,-11.92707 29.0796,-20.80434c5.99465,-8.61222 7.21525,-19.65299 8.48155,-33.5181c1.16155,-12.71801 4.16253,-24.18239 6.05825,-35.8297c1.68329,-10.34228 2.79846,-22.36922 -1.21165,-33.5181c-4.39637,-12.22276 -14.5398,-23.11593 -21.8097,-34.6739c-3.63495,-5.77898 -7.2699,-10.40217 -12.1165,-12.71376c-4.8466,-2.31159 -8.48155,-3.46739 -12.1165,-3.46739c-2.4233,0 -3.63495,0 -4.8466,0l-1.21165,0l0,1.1558" id="svg_24" fill="#FFDFB8"/>
  <path stroke="#000" d="m369,263c1,0 1,1.26415 1,2.5283c0,2.5283 1,6.32075 1,8.84906c0,3.79245 0.49347,7.4314 1,11.37736c0.48056,3.7435 0.67963,6.35339 1,8.84906c0.50653,3.94596 2,7.58491 3,11.37736c1,3.79245 2,8.84906 2,13.90566c0,6.32075 0.49902,13.84664 1,24.01887c0.62137,12.61709 1,25.28302 2,39.18868c1,13.90566 2,27.81132 3,42.98113c1,15.16981 1,29.07547 1,44.24528c0,12.64151 -1.49902,23.95984 -2,34.13208c-0.37283,7.57025 -1,15.16981 -1,18.96226c0,3.79245 0,6.32075 0,7.58491l-1,0" id="svg_25" fill="none"/>
  <path transform="rotate(5.70481 320 314.5)" d="m360,329c0,0 -0.07971,-0.84796 -4,-3c-5.11145,-2.80591 -12.02521,-5.88135 -17,-7c-4.02264,-0.90457 -5.96384,-1.11588 -9,-2c-3.95868,-1.15277 -9,-3 -15,-5c-9,-3 -15.90778,-6.49622 -20,-7c-1.98502,-0.24435 -3,-1 -4,-1c-1,0 -3,-1 -5,-2l-3,-1l-3,-1" id="svg_26" stroke="#000" fill="none"/>
  <path d="m398,360c0,-1 0.69254,-1.186 2,-3c2.48071,-3.4418 6.84766,-7.17804 15,-14c9.82123,-8.21848 20.66531,-17.48596 35,-27c12.71802,-8.44107 24.58295,-15.18805 36,-24c9.5325,-7.35742 16.80838,-14.23108 24,-20c3.90021,-3.12863 7,-6 7,-7l0,1" id="svg_27" stroke="#000" fill="none"/>
  <path d="m382,510c0,1 0,2 0,3c0,2 -1.11588,4.96384 -2,8c-1.15277,3.95868 -3.93918,9.02475 -6,14c-2.91443,7.03607 -5.79568,14.09116 -9,21c-3.76328,8.11404 -6.76141,15.14185 -11,22c-3.79111,6.13416 -7.07858,11.93811 -11,17c-3.0621,3.95264 -4,7 -5,8l0,1" id="svg_28" stroke="#000" fill="none"/>
  <path d="m384,521c0,1 -0.38269,2.07611 0,3c1.6236,3.91968 6.81195,10.19257 15,18c10.759,10.25885 20.88974,19.13647 32,28c8.9129,7.11053 16,13 22,18c6,5 11,9 16,13l3,2l2,1l1,1" id="svg_29" stroke="#000" fill="none"/>
  <path stroke="#000" d="m298,55.99999c-3.30299,1.18789 -6.69952,2.27781 -11.56047,4.75155c-6.7409,3.43045 -15.23128,5.61157 -21.46944,9.50309c-7.05766,4.40276 -13.99197,8.87625 -21.46944,14.25464c-7.47747,5.37839 -15.24783,11.56199 -24.77243,17.8183c-8.62318,5.66419 -16.31991,13.15321 -21.46944,19.00619c-6.36837,7.23834 -11.15153,13.17165 -14.86346,20.19407c-4.46977,8.45612 -9.90897,15.44253 -14.86346,23.75773c-4.95449,8.31521 -9.30282,15.67774 -14.86346,22.56985c-5.9775,7.40879 -12.98522,14.34998 -19.81794,22.56985c-7.99525,9.61841 -16.51495,17.8183 -24.77243,27.32139c-8.25748,9.50309 -15.20844,17.65898 -21.46944,24.94562c-7.00001,8.14671 -10.81221,15.25797 -13.21196,22.56985c-2.68302,8.17491 -2.79307,15.52783 -4.95449,21.38196c-1.34045,3.63058 -2.46643,8.17096 -3.30299,11.87887c-0.79362,3.51766 0,7.12732 0,10.69098c0,3.56366 0,5.93943 0,7.12732c0,1.18789 0,3.56366 0,4.75155c0,1.18789 0,2.37577 0,3.56366c0,1.18789 0,3.56366 0,4.75155c0,2.37577 0.3875,3.74452 1.6515,5.93943c0.89379,1.55203 1.6515,2.37577 3.30299,2.37577c1.6515,0 2.7967,0.545 4.95449,1.18789c3.05157,0.90919 6.66996,0.57085 11.56047,0c5.15505,-0.6017 9.90897,-2.37577 14.86346,-2.37577c4.95449,0 9.90897,-1.18789 14.86346,-1.18789c3.30299,0 6.60598,0 8.25748,0c1.6515,0 4.95449,0 6.60598,0c1.6515,0 3.7867,-0.34794 4.95449,-1.18789c1.16778,-0.83995 1.93736,-2.20082 3.30299,-3.56366c2.15925,-2.15482 5.30406,-4.41194 9.90897,-7.12732c5.41857,-3.19516 9.45313,-7.39188 14.86346,-11.87887c6.12106,-5.07643 13.68123,-9.18372 21.46944,-15.44253c7.05252,-5.66758 13.34174,-10.6175 19.81794,-16.63041c5.05707,-4.69532 8.60438,-9.32582 13.21196,-14.25464c5.37331,-5.74795 9.56865,-10.79484 13.21196,-16.63041c3.02559,-4.84616 6.25893,-9.59626 8.25748,-13.06675c2.82639,-4.90801 4.95449,-10.69098 6.60598,-15.44253c1.6515,-4.75155 3.30299,-8.31521 4.95449,-11.87887c1.6515,-3.56366 3.49436,-8.27225 4.95449,-11.87887c1.9038,-4.70246 0.84435,-9.53869 1.6515,-14.25464c0.832,-4.86108 3.30299,-7.12732 4.95449,-10.69098c1.6515,-3.56366 2.46646,-5.79517 3.30299,-9.50309c0.79364,-3.51764 1.39919,-7.1764 3.30299,-11.87887c1.46013,-3.60662 2.95594,-6.0326 4.95449,-9.50309c1.41321,-2.454 1.6515,-5.93943 3.30299,-9.50309c1.6515,-3.56366 2.24485,-7.18868 3.30299,-11.87887c0.83653,-3.70792 3.30299,-7.12732 3.30299,-10.69098c0,-3.56366 0,-7.12732 0,-10.69098c0,-2.37577 0,-4.75155 0,-5.93943l0,-1.18789l0,-1.18789l0,-1.18789" id="svg_30" fill="#FFF093"/>
  <path stroke="#000" d="m288.36265,92.43479c1.17299,0 3.51897,0 8.21092,0c7.03793,0 14.11982,-0.74372 19.94081,0c4.80013,0.61328 9.38391,1.21739 16.42184,2.43478c7.03793,1.21739 13.98881,4.2579 19.94081,4.86957c3.50186,0.35987 7.03793,1.21739 10.5569,2.43478c3.51897,1.21739 7.06822,2.04478 9.38391,2.43478c3.6614,0.61666 4.33238,2.99332 5.86494,3.65217c1.08371,0.46588 1.95762,1.97243 5.86494,3.65217c5.5258,2.37551 10.58647,3.50771 16.42184,4.86957c4.71852,1.1012 9.34085,1.41268 14.07586,2.43478c6.98553,1.5079 15.25948,2.34941 24.63276,3.65217c8.22091,1.1426 15.24885,1.21739 21.1138,1.21739c4.69195,0 8.25939,-1.03141 12.90288,-2.43478c3.56139,-1.07634 5.86494,-3.65217 8.21092,-4.86957c2.34598,-1.21739 3.59639,-3.50323 5.86494,-4.86957c3.65793,-2.20314 6.75768,-4.15848 10.5569,-6.08696c3.33214,-1.69139 5.09803,-2.07621 7.03793,-4.86957c1.53364,-2.20834 2.34598,-3.65217 4.69195,-6.08696c2.34598,-2.43478 3.86254,-2.79135 4.69195,-3.65217c0.82941,-0.86083 0,0 0,1.21739c0,1.21739 0,2.43478 0,3.65217c0,1.21739 0,2.43478 0,3.65217c0,1.21739 -0.53899,3.7173 0,6.08696c0.6026,2.64935 1.53747,4.96726 2.34598,8.52174c1.20524,5.29871 4.69195,9.73913 8.21092,15.82609c3.51897,6.08696 7.78039,12.41497 11.72989,19.47826c4.24557,7.59281 9.0975,16.01831 15.24885,25.56522c5.60907,8.70529 11.72989,19.47826 18.76782,28c7.03793,8.52174 13.50934,15.25592 18.76782,21.91304c5.36264,6.78896 12.90288,13.3913 21.1138,20.69565c8.21092,7.30435 16.42184,13.3913 23.45977,18.26087c7.03793,4.86957 13.87798,10.00763 19.94081,14.6087c6.82788,5.18168 15.24885,10.95652 21.1138,15.82609c5.86494,4.86957 9.6322,8.1737 12.90288,10.95652c2.5657,2.183 4.69195,4.86957 7.03793,6.08696c2.34598,1.21739 3.51897,2.43478 4.69195,2.43478c1.17299,0 2.10428,-3.75861 4.69195,-9.73913c2.14895,-4.96653 7.86827,-11.41984 12.90288,-18.26087c5.7403,-7.79999 9.38391,-15.82609 12.90288,-24.34783c3.51897,-8.52174 6.42996,-18.11475 8.21092,-26.78261c1.72984,-8.41896 2.05473,-17.22528 0,-25.56522c-2.48272,-10.07717 -9.63706,-20.52499 -16.42184,-31.65217c-7.315,-11.9967 -16.13167,-24.55471 -23.45977,-35.30435c-6.77483,-9.93804 -11.72989,-18.26087 -17.59483,-28c-5.86494,-9.73913 -14.94279,-20.98646 -24.63276,-31.65217c-10.24224,-11.27363 -21.98423,-22.28581 -31.67069,-30.43478c-9.11221,-7.6659 -18.33425,-15.29392 -26.97874,-20.69565c-8.98814,-5.61645 -20.98106,-10.09882 -32.84368,-14.6087c-10.44897,-3.97243 -19.94081,-4.86957 -28.15173,-6.08696c-8.21092,-1.21739 -17.54611,-1.82515 -28.15173,-2.43478c-11.71195,-0.67322 -26.98826,-0.70348 -39.88161,-1.21739c-15.28264,-0.60915 -30.4977,-1.21739 -43.40058,-1.21739c-12.90288,0 -26.97874,0 -38.70863,0c-10.5569,0 -19.94081,0 -29.32472,0c-8.21092,0 -16.42184,0 -23.45977,0c-5.86494,0 -11.93747,0.42022 -17.59483,2.43478c-4.96183,1.76689 -8.21092,3.65217 -9.38391,4.86957c-2.34598,2.43478 -3.51897,4.86957 -4.69195,8.52174c-1.17299,3.65217 -2.74185,7.68175 -4.69195,10.95652c-2.61635,4.39358 -5.86494,7.30435 -9.38391,10.95652c-3.51897,3.65217 -8.57479,6.96224 -11.72989,10.95652c-2.68132,3.39448 -5.50429,7.53079 -7.03793,9.73913c-0.96995,1.39668 -2.34598,2.43478 -3.51897,3.65217c-2.34598,2.43478 -3.60824,3.1863 -4.69195,3.65217c-3.06517,1.31769 -3.51897,2.43478 -4.69195,3.65217c-1.17299,1.21739 -2.34598,1.21739 -2.34598,2.43478l-1.17299,1.21739l-1.17299,1.21739" id="svg_31" fill="#FFF093"/>
  <path stroke="#000" d="m374.92405,303.10212c0,1.52554 -0.80065,1.64165 -1.297,3.05107c-1.40387,3.98642 -4.81722,4.89952 -7.78203,9.15321c-2.32577,3.33688 -3.89101,6.10214 -7.78203,10.67875c-2.59401,3.05107 -5.46256,7.19154 -9.07903,10.67875c-4.25548,4.10337 -8.06765,10.36585 -11.67304,15.25536c-4.24899,5.76238 -7.78203,10.67875 -11.67304,15.25536c-3.89101,4.57661 -7.78203,9.15321 -11.67304,13.72982c-2.59401,3.05107 -7.02444,7.26319 -9.07903,12.20428c-1.80198,4.33363 -3.49223,7.91143 -5.18802,10.67875c-2.145,3.50038 -3.49223,4.86036 -5.18802,7.62768c-2.145,3.50038 -3.17831,6.7894 -6.48502,10.67875c-3.30671,3.88935 -6.48502,9.15321 -10.37604,15.25536c-3.89101,6.10214 -7.92749,12.07966 -11.67304,18.30643c-2.70096,4.4902 -5.33348,10.55412 -9.07903,16.78089c-2.70096,4.4902 -5.18802,9.15321 -9.07903,13.72982c-2.59401,3.05107 -4.81722,6.42505 -7.78203,10.67875c-2.32577,3.33688 -5.18802,6.10214 -7.78203,9.15321c-2.59401,3.05107 -4.43427,5.21558 -6.48502,7.62768c-2.05075,2.41209 -3.49225,3.33483 -5.18802,6.10214c-1.0725,1.75021 -4.34003,2.60176 -6.48502,6.10214c-1.69577,2.76731 -3.89101,4.57661 -6.48502,7.62768c-2.59401,3.05107 -5.18802,6.10214 -7.78203,9.15321c-3.89101,4.57661 -6.48502,7.62768 -9.07903,10.67875c-1.297,1.52554 -1.67689,3.49791 -2.59401,4.57661c-0.91712,1.07869 -4.13226,1.05649 -6.48502,3.05107c-1.488,1.26147 -3.79228,3.63488 -2.59401,3.05107c1.69462,-0.82562 3.86162,-1.67112 9.07903,-3.05107c6.45233,-1.70654 15.5449,-1.69253 24.64309,-3.05107c11.65135,-1.73978 24.52319,-3.86919 37.61313,-6.10214c14.17756,-2.41852 27.18861,-2.28737 40.20714,-3.05107c11.65855,-0.68395 23.34608,0 33.72212,-1.52554c10.37604,-1.52554 20.75207,-3.05107 32.42511,-3.05107c9.07903,0 18.17766,0.64885 25.94009,0c9.14814,-0.76468 16.79195,-2.28639 25.94009,-3.05107c9.05619,-0.75699 18.15806,-1.52554 27.2371,-1.52554c7.78203,0 16.79195,-0.76086 25.94009,-1.52554c9.05619,-0.75699 18.18063,-0.6724 29.83111,-1.52554c10.4366,-0.76426 22.06194,-0.91761 32.42511,-1.52554c13.01853,-0.7637 23.33912,-1.601 35.01912,-3.05107c12.96276,-1.60934 23.29225,-2.28714 35.01912,-3.05107c12.95018,-0.84363 23.34608,-1.52554 33.72212,-1.52554c9.07903,0 18.15806,0 24.64309,0c6.48502,0 9.45893,-0.44684 10.37604,-1.52554c0.9171,-1.07869 1.04891,-3.67054 -1.297,-7.62768c-4.75009,-8.0126 -13.28931,-13.15546 -19.45507,-18.30643c-8.25875,-6.89941 -16.5277,-14.34724 -28.5341,-22.88303c-13.90821,-9.88786 -29.71292,-21.57915 -44.09816,-32.03625c-12.86654,-9.35308 -26.91617,-18.8326 -37.61313,-27.45964c-10.09149,-8.13872 -20.75207,-15.25536 -31.12811,-22.88303c-10.37604,-7.62768 -19.33387,-15.47482 -27.2371,-21.3575c-6.39062,-4.75678 -11.67304,-9.15321 -15.56405,-12.20428c-3.89101,-3.05107 -7.95326,-7.25439 -12.97005,-10.67875c-4.04467,-2.7608 -9.07903,-7.62768 -11.67304,-9.15321c-2.59401,-1.52554 -3.20914,-1.75338 -3.89101,-3.05107c-1.52472,-2.90172 -5.39459,-3.98265 -9.07903,-6.10214c-4.2009,-2.41661 -8.1841,-5.09147 -11.67304,-7.62768c-3.1206,-2.26847 -3.89101,-4.57661 -6.48502,-6.10214c-2.59401,-1.52554 -7.95326,-4.20332 -12.97005,-7.62768c-4.04467,-2.7608 -8.85045,-6.84396 -11.67304,-7.62768c-1.26229,-0.35052 -2.69273,-0.94173 -3.89101,-1.52554c-1.6946,-0.82562 -2.59401,-1.52554 -3.89101,-3.05107l-2.59401,-1.52554l-1.297,0" id="svg_32" fill="#D3BEE7"/>
 </g>
</svg>